<svg width="26" height="28" viewBox="0 0 26 28" fill="none" xmlns="http://www.w3.org/2000/svg">
<path d="M1.29005 11.3971C-0.429955 12.6871 -0.429955 15.2692 1.29005 16.5592L14.1943 26.2256C16.3207 27.8166 19.3543 26.3009 19.3543 23.6456L19.3543 4.30637C19.3543 1.64897 16.3185 0.133225 14.1943 1.72637L1.29005 11.3971ZM23.65 26.8749C23.65 27.16 23.7633 27.4335 23.9649 27.6351C24.1665 27.8367 24.4399 27.9499 24.725 27.9499C25.0102 27.9499 25.2836 27.8367 25.4852 27.6351C25.6868 27.4335 25.8 27.16 25.8 26.8749L25.8 1.07492C25.8 0.789816 25.6868 0.516385 25.4852 0.314784C25.2836 0.113182 25.0102 -7.54798e-05 24.725 -7.54674e-05C24.4399 -7.54549e-05 24.1665 0.113182 23.9649 0.314784C23.7633 0.516386 23.65 0.789816 23.65 1.07492L23.65 26.8749Z" fill="white"/>
</svg>
