<svg width="27" height="29" viewBox="0 0 27 29" fill="none" xmlns="http://www.w3.org/2000/svg">
<path d="M25.1099 11.9222C26.8299 13.2122 26.8299 15.7944 25.1099 17.0844L12.2056 26.7508C10.0792 28.3418 7.0456 26.826 7.0456 24.1708L7.0456 4.83155C7.0456 2.17415 10.0814 0.658397 12.2056 2.25155L25.1099 11.9222ZM2.7499 27.4001C2.7499 27.6852 2.63664 27.9586 2.43504 28.1602C2.23344 28.3618 1.96001 28.4751 1.6749 28.4751C1.38979 28.4751 1.11636 28.3618 0.914759 28.1602C0.713156 27.9586 0.599899 27.6852 0.599899 27.4001L0.5999 1.60009C0.5999 1.31499 0.713157 1.04156 0.91476 0.839955C1.11636 0.638352 1.38979 0.525096 1.6749 0.525096C1.96001 0.525096 2.23344 0.638352 2.43504 0.839955C2.63664 1.04156 2.7499 1.31499 2.7499 1.60009L2.7499 27.4001Z" fill="black"/>
</svg>
