<svg width="27" height="29" viewBox="0 0 27 29" fill="none" xmlns="http://www.w3.org/2000/svg">
<path d="M1.8901 11.9222C0.170097 13.2122 0.170097 15.7944 1.8901 17.0844L14.7944 26.7508C16.9208 28.3418 19.9544 26.826 19.9544 24.1708L19.9544 4.83155C19.9544 2.17415 16.9186 0.658397 14.7944 2.25155L1.8901 11.9222ZM24.2501 27.4001C24.2501 27.6852 24.3634 27.9586 24.565 28.1602C24.7666 28.3618 25.04 28.4751 25.3251 28.4751C25.6102 28.4751 25.8836 28.3618 26.0852 28.1602C26.2868 27.9586 26.4001 27.6852 26.4001 27.4001L26.4001 1.60009C26.4001 1.31499 26.2868 1.04156 26.0852 0.839955C25.8836 0.638352 25.6102 0.525096 25.3251 0.525096C25.04 0.525096 24.7666 0.638352 24.565 0.839955C24.3634 1.04156 24.2501 1.31499 24.2501 1.60009L24.2501 27.4001Z" fill="black"/>
</svg>
