<svg width="26" height="28" viewBox="0 0 26 28" fill="none" xmlns="http://www.w3.org/2000/svg">
<path d="M1.29 11.3971C-0.430001 12.6871 -0.430001 15.2692 1.29 16.5592L14.1943 26.2257C16.3207 27.8167 19.3543 26.3009 19.3543 23.6457L19.3543 4.3064C19.3543 1.649 16.3185 0.13325 14.1943 1.7264L1.29 11.3971ZM23.65 26.875C23.65 27.1601 23.7633 27.4335 23.9649 27.6351C24.1665 27.8367 24.4399 27.95 24.725 27.95C25.0101 27.95 25.2835 27.8367 25.4851 27.6351C25.6867 27.4335 25.8 27.1601 25.8 26.8749L25.8 1.07495C25.8 0.789841 25.6867 0.51641 25.4851 0.314809C25.2835 0.113206 25.0101 -5.06843e-05 24.725 -5.06718e-05C24.4399 -5.06594e-05 24.1665 0.113206 23.9649 0.314809C23.7633 0.51641 23.65 0.789842 23.65 1.07495L23.65 26.875Z" fill="white"/>
</svg>
